<?xml version="1.0" standalone="no"?><!DOCTYPE svg PUBLIC "-//W3C//DTD SVG 1.1//EN" "http://www.w3.org/Graphics/SVG/1.1/DTD/svg11.dtd"><svg t="1599294869725" class="icon" viewBox="0 0 1024 1024" version="1.1" xmlns="http://www.w3.org/2000/svg" p-id="9097" xmlns:xlink="http://www.w3.org/1999/xlink" width="64" height="64"><defs><style type="text/css"></style></defs><path d="M903.77742 538.320685a246.196888 246.196888 0 0 0-99.597831-158.9089L456.146716 130.976744 290.523355 12.914146a49.239378 49.239378 0 1 0-55.953838 80.013988l74.418604 55.953838L80.136924 465.580696a245.637349 245.637349 0 0 0 55.953838 341.877951l239.482427 170.659206a245.637349 245.637349 0 0 0 341.87795-55.953838l142.122749-199.755202a245.077811 245.077811 0 0 0 44.203532-184.088128zM160.150912 522.653611l227.732121-319.496416 245.077811 174.575975 111.907676 81.133065a147.158594 147.158594 0 0 1 55.953838 148.277671 1941.598182 1941.598182 0 0 1-327.889491 37.489072A1690.924987 1690.924987 0 0 1 133.852608 619.453751a144.920441 144.920441 0 0 1 26.298304-96.80014zM911.610958 731.361427s-163.385207 268.578423 0 292.638573c0 0 167.301976-7.273999 0-292.638573z" fill="#066000" p-id="9098"></path></svg>