<?xml version="1.0" standalone="no"?><!DOCTYPE svg PUBLIC "-//W3C//DTD SVG 1.1//EN" "http://www.w3.org/Graphics/SVG/1.1/DTD/svg11.dtd"><svg t="1598077942383" class="icon" viewBox="0 0 1024 1024" version="1.1" xmlns="http://www.w3.org/2000/svg" p-id="1494" xmlns:xlink="http://www.w3.org/1999/xlink" width="64" height="64"><defs><style type="text/css"></style></defs><path d="M631.1 266.9h152.2v41H631.1zM824.3 266.9h152.2v41H824.3zM783.3 307.8h41V460h-41zM783.3 114.6h41v152.2h-41z" p-id="1495" fill="#006600"></path><path d="M783.3 266.9h41v41h-41zM368.5 150.5L57.2 855.2h73.2l101.3-236.8h346.7l98.9 236.8h78.1L444.2 150.5h-75.7zM559 572H251.3l54.9-127.6c35.4-82.2 65.9-156.6 96.4-241.7h4.9c31.7 85.1 61 159.5 97.7 241.7L559 572z" p-id="1496" fill="#006600"></path></svg>